<svg height="700pt" viewBox="0 0 700 700" width="700pt" xmlns="http://www.w3.org/2000/svg"><path d="m165.2 14c-29.68 0-53.762 24.078-53.762 53.762 0 29.68 24.078 53.762 53.762 53.762 189.28 0 342.72 153.44 342.72 342.72 0 29.68 24.078 53.762 53.762 53.762 29.68 0 53.762-24.078 53.762-53.762.55859-248.08-201.6-450.24-450.24-450.24z"/><path d="m165.2 198.8c-29.68 0-53.762 24.078-53.762 53.762 0 29.68 24.078 53.762 53.762 53.762 87.359 0 158.48 70.559 158.48 157.92 0 29.68 24.078 53.762 53.762 53.762 29.68 0 53.762-24.078 53.762-53.762-.003906-146.17-119.28-265.45-266-265.45z"/><path d="m165.2 383.6c-44.801 0-81.199 36.398-81.199 80.637 0 45.363 36.398 81.762 81.199 81.762s81.762-36.398 81.762-81.762c-.5625-44.238-36.961-80.637-81.762-80.637z"/></svg>