<?xml version="1.0" encoding="UTF-8"?>
<svg width="700pt" height="700pt" version="1.1" viewBox="0 0 700 700" xmlns="http://www.w3.org/2000/svg" xmlns:xlink="http://www.w3.org/1999/xlink">
 <g>
  <path d="m253.12 373.52c3.0625 3.2188 7.3125 5.0391 11.758 5.0391 4.332-0.019532 8.5117-1.6133 11.762-4.4805l72.801-70.559 70.559 72.801c2.7617 3.6875 7.1562 5.7812 11.762 5.6016 4.4414 0 8.6914-1.8242 11.758-5.043 3.1562-3.0664 4.9805-7.2461 5.0859-11.645s-1.5195-8.6602-4.5273-11.875l-70.559-72.801 72.801-70.559c3.293-2.9883 5.2148-7.1953 5.3203-11.641s-1.6133-8.7383-4.7617-11.879c-3.0664-3.1562-7.2461-4.9805-11.645-5.0859s-8.6602 1.5195-11.875 4.5273l-72.801 70.559-70.559-72.801c-2.9883-3.293-7.1953-5.2148-11.641-5.3203s-8.7383 1.6133-11.879 4.7617c-3.1562 3.0664-4.9805 7.2461-5.0859 11.645s1.5195 8.6602 4.5273 11.875l70.559 72.801-72.801 70.559c-3.293 2.9883-5.2148 7.1953-5.3203 11.641s1.6133 8.7383 4.7617 11.879z"/>
 </g>
</svg>
