<svg xmlns="http://www.w3.org/2000/svg" viewBox="0 0 700 700">
  <defs>
    <linearGradient id="a" x1="0" x2="0" y1="0" y2="1">
      <stop offset="0%" stop-color="#666"/>
      <stop offset="100%"/>
    </linearGradient>
  </defs>
  <path fill="url(#a)" stroke="#000" stroke-width="10" d="M492 244a151 151 0 1 0-284 0c0 1 59 179 142 273 83-94 142-272 142-273zM350 105a88 88 0 0 1 77 132l-2 4a81 81 0 0 1-5 6 93 93 0 0 1-4 6l-2 2-3 3h-1l-2 2a217 217 0 0 0-1 1l-1 1-1 1a121 121 0 0 1-4 2l-1 1-1 1-3 2h-1v1h-1l-1 1h-1l-2 1-1 1-2 1h-1l-1 1h-2v1h-1a87 87 0 0 1-2 1h-1l-1 1h-1a51 51 0 0 1-2 0h-1l-1 1h-2l-1 1a48 48 0 0 1-3 0l-1 1h-4a77 77 0 0 1-1 0h-2l-1 1h-16l-1-1h-7l-1-1h-3l-1-1h-2l-1-1h-1a43 43 0 0 1-1 0h-2l-1-1a27 27 0 0 1-1 0l-2-1h-1v-1a73 73 0 0 1-3-1h-1l-2-1-1-1-2-1h-1l-1-1a99 99 0 0 1-1-1h-1l-3-2-1-1-1-1h-1l-1-1-2-1-1-1-1-1-1-1-2-2h-1l-3-3-2-2-3-4-1-2a80 80 0 0 1-5-6l-2-4a88 88 0 0 1-11-44c0-48 39-88 88-88z"/>
</svg>
