<?xml version="1.0" encoding="UTF-8"?>
<svg width="700pt" height="700pt" version="1.1" viewBox="0 0 700 700" xmlns="http://www.w3.org/2000/svg" xmlns:xlink="http://www.w3.org/1999/xlink">
  <defs>
    <linearGradient id="blue" x1="0" x2="0" y1="0" y2="1">
      <stop offset="0%" stop-color="rgb(84, 175, 255)" />
      <stop offset="100%" stop-color="rgb(23, 94, 188)" /> 
    </linearGradient>

    <linearGradient id="black" x1="0" x2="0" y1="0" y2="1">
      <stop offset="0%" stop-color="#666" />
      <stop offset="100%" stop-color="#000" /> 
    </linearGradient>
  </defs>
<style>
  path {
    stroke-width: 10;
    fill: url(#blue);
    stroke: rgb(0, 40, 90);
  }

  .black path {
    fill: url(#black);
    stroke: #000;
  }
</style>
 <g>
  <path d="m492.11 244.23c5.668-15.863 8.7578-32.949 8.7578-50.758 0-83.324-67.555-150.86-150.87-150.86-83.312-0.003906-150.87 67.539-150.87 150.86 0 17.812 3.0859 34.895 8.7539 50.758 0.12891 0.37891 58.867 179.06 142.12 273.16 83.25-94.102 141.99-272.79 142.11-273.16zm-142.11-139.12c48.805 0 88.363 39.559 88.363 88.363 0 14.75-3.6172 28.656-10 40.879-0.46094 0.875-0.93359 1.7461-1.418 2.6055-0.011718 0.011718-0.011718 0.023437-0.023437 0.039062-0.73438 1.2812-1.5 2.5547-2.2852 3.8008v0.003907c-0.52734 0.82812-1.0703 1.6523-1.625 2.457-0.003907 0.011719-0.015625 0.027343-0.027344 0.039062-0.82812 1.2148-1.6875 2.4062-2.5703 3.5742-0.011718 0.011719-0.015624 0.015625-0.023437 0.027344-0.58984 0.77734-1.1914 1.5391-1.8047 2.2969-0.015626 0.015625-0.035157 0.035156-0.042969 0.050781-0.91797 1.125-1.8633 2.2344-2.8398 3.3164-0.015625 0.015625-0.027344 0.035156-0.050781 0.054688-0.64453 0.71875-1.3008 1.418-1.9727 2.1094-0.015626 0.023437-0.042969 0.050781-0.0625 0.074219-1.0039 1.0352-2.0273 2.043-3.0742 3.0312-0.027344 0.035156-0.0625 0.054687-0.085938 0.085937-0.69531 0.64844-1.3984 1.2891-2.1094 1.9219-0.035156 0.027344-0.066406 0.0625-0.10156 0.089844-0.35156 0.30078-0.69531 0.59766-1.0469 0.90234-0.011719 0.003906-0.023438 0.015624-0.027344 0.023437-0.375 0.32031-0.75781 0.63281-1.125 0.94141 0 0-0.003906 0-0.003906 0.003907-0.35156 0.29297-0.71875 0.58203-1.0742 0.86719-0.042969 0.039063-0.089844 0.074219-0.12891 0.10547-0.73438 0.58203-1.4844 1.1523-2.2344 1.7188-0.050781 0.035156-0.09375 0.066406-0.13281 0.10156-0.35156 0.26172-0.70703 0.51953-1.0586 0.77344-0.023437 0.023437-0.054687 0.042968-0.089843 0.066406-0.38672 0.28125-0.77734 0.55469-1.1758 0.82422-0.003907 0.003906-0.015626 0.015625-0.027344 0.023437-0.37109 0.25391-0.74609 0.50391-1.1133 0.75781-0.054687 0.039062-0.11719 0.078125-0.17187 0.11719-0.77734 0.51562-1.5586 1.0195-2.3516 1.5117-0.054687 0.039063-0.11719 0.074219-0.17188 0.11328-0.35156 0.21875-0.71094 0.42969-1.0586 0.64453-0.054687 0.035156-0.10156 0.0625-0.15234 0.089843-0.40234 0.24609-0.8125 0.48047-1.2266 0.71875-0.011719 0.011719-0.035156 0.023438-0.054688 0.035157-0.375 0.21094-0.75781 0.42578-1.1367 0.63672-0.078125 0.039063-0.15234 0.085938-0.23047 0.125-0.80469 0.44141-1.6172 0.875-2.4531 1.2891-0.066406 0.039062-0.14062 0.078125-0.20703 0.11328-0.35938 0.17969-0.71094 0.35156-1.0703 0.53125-0.066406 0.035156-0.13281 0.074219-0.20703 0.10547-0.41406 0.20312-0.83594 0.40234-1.2617 0.59766-0.035156 0.011719-0.054687 0.023437-0.085937 0.035156-0.38672 0.17969-0.77734 0.35156-1.1641 0.53125-0.089844 0.039063-0.18359 0.085938-0.27344 0.125-0.39062 0.16797-0.78906 0.33984-1.1797 0.50781-0.023437 0.011718-0.054687 0.023437-0.078125 0.035156-0.42578 0.17969-0.85156 0.35156-1.2812 0.53125-0.089844 0.039062-0.16797 0.074219-0.26172 0.10547-0.35156 0.14062-0.69922 0.28516-1.0586 0.42188-0.089844 0.035156-0.17188 0.074218-0.26172 0.10547-0.42969 0.16406-0.86328 0.32422-1.293 0.48047-0.035156 0.011719-0.074218 0.027344-0.10156 0.039063-0.39844 0.14062-0.79688 0.28516-1.1914 0.42188-0.10547 0.039062-0.20703 0.078125-0.3125 0.11719-0.38672 0.125-0.76563 0.25781-1.1602 0.37891-0.050781 0.015626-0.10156 0.035157-0.15234 0.050782-0.42969 0.14062-0.875 0.28516-1.3086 0.41406-0.09375 0.035156-0.18359 0.0625-0.28516 0.089844-0.35938 0.11328-0.71094 0.21875-1.0703 0.32422-0.10547 0.027343-0.20703 0.0625-0.32031 0.089843-0.4375 0.125-0.875 0.25391-1.3203 0.37109-0.035156 0.003906-0.074219 0.023438-0.10156 0.027344-0.41406 0.11328-0.81641 0.21094-1.2383 0.32422-0.11719 0.027343-0.23047 0.0625-0.35156 0.085937-0.37109 0.10156-0.75781 0.18359-1.125 0.27344-0.078125 0.023437-0.15234 0.039062-0.22266 0.054687-0.44141 0.10547-0.89063 0.20703-1.3398 0.30078-0.11328 0.023438-0.20703 0.042969-0.3125 0.066407-0.35156 0.078125-0.71875 0.15234-1.0742 0.22266-0.11719 0.023437-0.24219 0.042969-0.35156 0.066406-0.45312 0.09375-0.90234 0.17188-1.3594 0.25781-0.035157 0.003906-0.054688 0.011718-0.089844 0.015625-0.42578 0.078125-0.85156 0.14453-1.2812 0.21094-0.11719 0.023438-0.25391 0.042969-0.37109 0.0625-0.37891 0.0625-0.75781 0.11719-1.125 0.17188-0.09375 0.011719-0.18359 0.023438-0.27344 0.039063-0.45312 0.0625-0.91406 0.125-1.3711 0.17969-0.10547 0.015625-0.21094 0.027344-0.32422 0.039063-0.35938 0.042968-0.73438 0.089844-1.0977 0.125-0.125 0.015625-0.25391 0.027344-0.375 0.042968-0.46484 0.050782-0.92969 0.09375-1.3945 0.13281-0.015624 0-0.039062 0-0.0625 0.003906-0.44141 0.035157-0.88672 0.074219-1.332 0.10547-0.13281 0.011719-0.26172 0.015625-0.39844 0.027344-0.375 0.027344-0.75 0.050781-1.1328 0.074218-0.10156 0.003907-0.20312 0.011719-0.30859 0.015626-0.46484 0.023437-0.92969 0.042968-1.3984 0.0625-0.11328 0.003906-0.21875 0.003906-0.33203 0.011718-0.37109 0.015625-0.75 0.023438-1.125 0.035156-0.13281 0-0.26953 0.003907-0.39844 0.003907-0.47656 0.003906-0.95312 0.011719-1.4219 0.011719-0.47656 0-0.94531-0.003907-1.4219-0.011719-0.13281 0-0.26953-0.003907-0.40234-0.003907-0.375-0.011718-0.75-0.015624-1.125-0.035156-0.10547-0.003906-0.21875-0.003906-0.32422-0.011718-0.46875-0.015626-0.93359-0.039063-1.3984-0.0625-0.10547-0.003907-0.20703-0.011719-0.30859-0.015626-0.375-0.023437-0.75781-0.042968-1.1328-0.074218-0.12891-0.011719-0.26172-0.015625-0.39844-0.027344-0.44922-0.035156-0.89453-0.074219-1.3398-0.10547-0.015625-0.003906-0.039063-0.003906-0.054688-0.003906-0.46484-0.042969-0.92969-0.089844-1.3945-0.13281-0.125-0.015624-0.25391-0.027343-0.37891-0.042968-0.36328-0.039063-0.72656-0.085938-1.0977-0.125-0.11328-0.011719-0.21875-0.023438-0.32422-0.039063-0.46094-0.054687-0.91406-0.11719-1.3711-0.17969-0.089844-0.015625-0.17969-0.027344-0.26953-0.039063-0.375-0.0625-0.75-0.11719-1.125-0.17188-0.12891-0.015625-0.25391-0.039062-0.37891-0.0625-0.42187-0.066406-0.84375-0.13281-1.2695-0.21094-0.035156-0.003907-0.0625-0.011719-0.089843-0.015625-0.46094-0.085938-0.90625-0.16406-1.3594-0.25781-0.11719-0.023437-0.23437-0.042969-0.35156-0.066406-0.36328-0.074219-0.72266-0.14453-1.082-0.22266-0.10547-0.023438-0.20703-0.042969-0.30859-0.066407-0.45312-0.09375-0.89453-0.19531-1.3438-0.30078-0.074219-0.015625-0.14453-0.035156-0.22266-0.054687-0.37891-0.089844-0.75781-0.17188-1.1367-0.27344-0.11719-0.023437-0.23438-0.054687-0.35156-0.085937-0.41016-0.11328-0.81641-0.21094-1.2266-0.32422-0.035156-0.003906-0.074219-0.023438-0.10547-0.027344-0.44922-0.11719-0.88672-0.24609-1.3281-0.37109-0.10547-0.027343-0.20703-0.0625-0.3125-0.089843-0.35938-0.10547-0.71875-0.21094-1.0703-0.32422-0.10156-0.027344-0.19531-0.054688-0.29297-0.089844-0.4375-0.12891-0.875-0.27344-1.3086-0.41406-0.050781-0.015625-0.10547-0.035156-0.15625-0.050782-0.38672-0.125-0.76562-0.25781-1.1523-0.37891-0.10547-0.039062-0.21094-0.078125-0.3125-0.11719-0.39844-0.13281-0.79687-0.27344-1.1875-0.42188-0.035156-0.011719-0.066406-0.027344-0.10156-0.039063-0.42969-0.15625-0.86328-0.32031-1.293-0.48047-0.089843-0.035156-0.17969-0.074218-0.26953-0.10547-0.35156-0.13281-0.70703-0.28125-1.0586-0.42188-0.085937-0.035157-0.17188-0.066407-0.25391-0.10547-0.42969-0.17188-0.85547-0.35156-1.2812-0.53125-0.023438-0.011719-0.050781-0.023438-0.078125-0.035156-0.39062-0.16797-0.78906-0.33984-1.1758-0.50781-0.089844-0.042969-0.17969-0.089843-0.27344-0.125-0.39062-0.17188-0.77734-0.35156-1.1641-0.53125-0.027344-0.011719-0.054688-0.023437-0.085938-0.035156-0.42188-0.19531-0.83984-0.39844-1.2617-0.59766-0.074219-0.035157-0.14063-0.074219-0.21094-0.10547-0.35156-0.17188-0.71094-0.35156-1.0625-0.53125-0.074219-0.035156-0.14062-0.074219-0.21094-0.11328-0.82422-0.41406-1.6406-0.84375-2.4531-1.2891-0.074219-0.042968-0.14453-0.089844-0.22266-0.125-0.37891-0.21094-0.76172-0.42578-1.1406-0.63672-0.015625-0.011719-0.035156-0.023438-0.054687-0.035157-0.41016-0.23438-0.8125-0.46875-1.2227-0.71094-0.050781-0.035156-0.10156-0.066406-0.15234-0.09375-0.35156-0.21094-0.71094-0.42578-1.0625-0.64453-0.054688-0.039062-0.11719-0.074218-0.17188-0.11328-0.79688-0.49219-1.5781-0.99609-2.3516-1.5117-0.054687-0.039062-0.11719-0.078124-0.17188-0.11719-0.375-0.25391-0.74609-0.50391-1.1094-0.75781-0.011719-0.003906-0.023437-0.015624-0.035156-0.023437-0.39062-0.27344-0.78906-0.54688-1.1758-0.82422-0.027344-0.023437-0.0625-0.042968-0.085938-0.066406-0.35156-0.25391-0.70703-0.50781-1.0586-0.77344-0.050781-0.035156-0.09375-0.066406-0.14062-0.10156-0.75781-0.56641-1.5-1.1328-2.2344-1.7188-0.042968-0.035156-0.089843-0.074219-0.12891-0.10547-0.35938-0.28516-0.72266-0.58203-1.0742-0.86719 0 0 0-0.003906-0.003907-0.003906-0.375-0.3125-0.75781-0.62109-1.125-0.94141l-0.027343-0.027343c-0.35156-0.29688-0.69922-0.59375-1.043-0.89453-0.035157-0.027344-0.066407-0.0625-0.10156-0.089844-0.71094-0.62891-1.418-1.2695-2.1055-1.9219-0.027344-0.027344-0.0625-0.050782-0.089844-0.085938-1.0469-0.98438-2.0664-1.9922-3.0703-3.0312-0.023437-0.023438-0.042969-0.050781-0.066406-0.074219-0.66797-0.69531-1.3203-1.3945-1.9648-2.1094-0.015625-0.023437-0.035156-0.039062-0.050781-0.054687-0.96875-1.082-1.9141-2.1914-2.832-3.3164-0.011719-0.015624-0.027344-0.035156-0.039063-0.050781-0.61719-0.75781-1.2148-1.5195-1.8086-2.2969-0.003906-0.011718-0.011718-0.015625-0.015624-0.027344-0.89063-1.1641-1.7461-2.3594-2.5742-3.5742-0.003907-0.011719-0.015625-0.027344-0.027344-0.039063-0.55469-0.8125-1.0938-1.6289-1.625-2.457v-0.003906c-0.79688-1.25-1.5508-2.5156-2.2852-3.8008-0.003907-0.015624-0.011719-0.027343-0.015625-0.039062-0.48828-0.85547-0.95703-1.7305-1.418-2.6055-6.3945-12.227-10.008-26.129-10.008-40.879-0.027343-48.812 39.531-88.371 88.336-88.371z"/>
 </g>
</svg>
