<?xml version="1.0" encoding="UTF-8"?>
<svg width="700pt" height="700pt" version="1.1" viewBox="0 0 700 700" xmlns="http://www.w3.org/2000/svg" xmlns:xlink="http://www.w3.org/1999/xlink">
 <g>
  <path d="m472.64 168h-245.28c-7 0-13.473 3.7344-16.973 9.8008-3.5039 6.0625-3.5039 13.535 0 19.598 3.5 6.0664 9.9727 9.8008 16.973 9.8008h245.28c7 0 13.473-3.7344 16.973-9.8008 3.5039-6.0625 3.5039-13.535 0-19.598-3.5-6.0664-9.9727-9.8008-16.973-9.8008z"/>
  <path d="m472.64 260.4h-245.28c-7 0-13.473 3.7383-16.973 9.8008-3.5039 6.0664-3.5039 13.535 0 19.602 3.5 6.0625 9.9727 9.8008 16.973 9.8008h245.28c7 0 13.473-3.7383 16.973-9.8008 3.5039-6.0664 3.5039-13.535 0-19.602-3.5-6.0625-9.9727-9.8008-16.973-9.8008z"/>
  <path d="m492.24 372.4c0-5.1953-2.0625-10.184-5.7383-13.859-3.6758-3.6758-8.6602-5.7383-13.859-5.7383h-245.28c-7 0-13.473 3.7344-16.973 9.8008-3.5039 6.0625-3.5039 13.535 0 19.598 3.5 6.0664 9.9727 9.8008 16.973 9.8008h245.28c5.1992 0 10.184-2.0664 13.859-5.7422 3.6758-3.6758 5.7383-8.6602 5.7383-13.859z"/>
 </g>
</svg>
