<svg xmlns="http://www.w3.org/2000/svg" xmlns:xlink="http://www.w3.org/1999/xlink" version="1.1" x="0px" y="0px" viewBox="0 0 100 100" style="enable-background:new 0 0 100 100;" xml:space="preserve"><path d="M76.4931641,90c0.5522461,0,1-0.4472656,1-1v-5.9433594H89c0.3476562,0,0.6704102-0.1806641,0.8520508-0.4765625  c0.1821289-0.2958984,0.1972656-0.6660156,0.0400391-0.9755859l-4.8968506-9.6552734h1.5955811  c0.3496094,0,0.6738281-0.1826172,0.8549805-0.4814453s0.1933594-0.6708984,0.0317383-0.9804688L83.109375,62.109375h0.934082  c0.3632812,0,0.6977539-0.1972656,0.8740234-0.5146484s0.1669922-0.7050781-0.0249023-1.0136719l-7.550293-12.140625  c-0.1826172-0.2929688-0.503418-0.4716797-0.8491211-0.4716797s-0.6665039,0.1787109-0.8491211,0.4716797l-7.5507812,12.140625  c-0.1918945,0.3085938-0.2011719,0.6962891-0.0249023,1.0136719s0.5107422,0.5146484,0.8740234,0.5146484h0.934082  l-4.3681641,8.3779297c-0.1616211,0.3095703-0.1494141,0.6816406,0.0317383,0.9804688s0.5053711,0.4814453,0.8549805,0.4814453  h1.5955811L63.09375,81.6044922c-0.1572266,0.3095703-0.1420898,0.6796875,0.0400391,0.9755859  c0.1816406,0.2958984,0.5043945,0.4765625,0.8520508,0.4765625h11.5073242V89C75.4931641,89.5527344,75.940918,90,76.4931641,90z   M76.4931641,50.8623047l5.7509766,9.2470703H70.7421875L76.4931641,50.8623047z M72.1315308,62.109375h8.7227783  l4.0875854,7.8398438H68.0439453L72.1315308,62.109375z M70.2333984,71.9492188h12.519043l4.6191406,9.1074219H65.6142578  L70.2333984,71.9492188z"/><path d="M10.1748047,82.5800781c0.1816406,0.2958984,0.5043945,0.4765625,0.8520508,0.4765625h11.5073242V89  c0,0.5527344,0.4477539,1,1,1s1-0.4472656,1-1v-5.9433594h11.5068359c0.3476562,0,0.6704102-0.1806641,0.8520508-0.4765625  c0.1821289-0.2958984,0.1972656-0.6660156,0.0400391-0.9755859l-4.8964233-9.6552734h1.5956421  c0.3496094,0,0.6738281-0.1826172,0.8549805-0.4814453s0.1933594-0.6708984,0.0317383-0.9804688l-4.3685913-8.3779297h0.934021  c0.3632812,0,0.6977539-0.1972656,0.8740234-0.5146484s0.1669922-0.7050781-0.0249023-1.0136719l-7.550293-12.140625  c-0.3652344-0.5859375-1.3330078-0.5859375-1.6982422,0l-7.550293,12.140625  c-0.1918945,0.3085938-0.2011719,0.6962891-0.0249023,1.0136719s0.5107422,0.5146484,0.8740234,0.5146484h0.9335938  l-4.3681641,8.3779297c-0.1616211,0.3095703-0.1494141,0.6816406,0.0317383,0.9804688s0.5053711,0.4814453,0.8549805,0.4814453  h1.5955811l-4.8968506,9.6552734C9.9775391,81.9140625,9.9926758,82.2841797,10.1748047,82.5800781z M23.5341797,50.8623047  l5.7509766,9.2470703H17.7832031L23.5341797,50.8623047z M19.1725464,62.109375h8.7227783l4.0875854,7.8398438H15.0849609  L19.1725464,62.109375z M17.2744141,71.9492188h12.5195312l4.6186523,9.1074219H12.6552734L17.2744141,71.9492188z"/><path d="M57.3867188,49.5556641c0.0888672,0.0244141,0.1782227,0.0361328,0.2661133,0.0361328  c0.4389648,0,0.8413086-0.2910156,0.9638672-0.734375c0.1342773-0.4892578,0.2026367-0.9960938,0.2026367-1.5078125v-0.2441406  c0-0.5527344-0.4477539-1-1-1s-1,0.4472656-1,1v0.2441406c0,0.3320312-0.0439453,0.6611328-0.1313477,0.9765625  C56.5415039,48.8583984,56.8544922,49.4091797,57.3867188,49.5556641z"/><path d="M49.0180664,61.4052734c0-0.5527344-0.4477539-1-1-1h-1.0913086c-0.5126953,0-1.0092773-0.1025391-1.4750977-0.3037109  c-0.5068359-0.2197266-1.0952148,0.0136719-1.3149414,0.5214844c-0.2192383,0.5068359,0.0141602,1.0947266,0.5209961,1.3144531  c0.7182617,0.3105469,1.4814453,0.4677734,2.269043,0.4677734h1.0913086  C48.5703125,62.4052734,49.0180664,61.9580078,49.0180664,61.4052734z"/><path d="M49.4379883,72.0029297c0.0864258,0,0.1748047-0.0107422,0.2626953-0.0351562  c1.1772461-0.3193359,2.2412109-1.0253906,2.9956055-1.9863281c0.3408203-0.4345703,0.2651367-1.0625-0.1694336-1.4042969  c-0.4345703-0.3408203-1.0634766-0.265625-1.4038086,0.1699219c-0.4902344,0.625-1.1816406,1.0830078-1.9467773,1.2910156  c-0.5327148,0.1445312-0.8476562,0.6943359-0.7026367,1.2265625C48.5942383,71.7099609,48.9975586,72.0029297,49.4379883,72.0029297  z"/><path d="M42.4360352,59.1298828c0.1000977,0,0.2016602-0.0146484,0.3017578-0.046875  c0.5263672-0.1660156,0.8188477-0.7275391,0.6523438-1.2539062c-0.112793-0.3574219-0.1699219-0.7304688-0.1699219-1.109375  c0-0.4189453,0.0698242-0.8300781,0.2080078-1.2207031c0.184082-0.5205078-0.0888672-1.0917969-0.6098633-1.2753906  c-0.5209961-0.1845703-1.0922852,0.0878906-1.2758789,0.609375c-0.2138672,0.6044922-0.3222656,1.2402344-0.3222656,1.8867188  c0,0.5830078,0.0883789,1.1591797,0.2626953,1.7109375C41.6176758,58.8574219,42.0117188,59.1298828,42.4360352,59.1298828z"/><path d="M42.5200195,72.7714844c0.1665039,0,0.3349609-0.0410156,0.4902344-0.1289062  c0.5527344-0.3115234,1.184082-0.4765625,1.8251953-0.4765625h0.5957031c0.5522461,0,1-0.4472656,1-1s-0.4477539-1-1-1h-0.5957031  c-0.9848633,0-1.9555664,0.2539062-2.8076172,0.734375c-0.480957,0.2714844-0.6508789,0.8808594-0.3798828,1.3623047  C41.831543,72.5888672,42.1708984,72.7714844,42.5200195,72.7714844z"/><path d="M43.0712891,81.4628906c0.5678711,0.1845703,1.1616211,0.2773438,1.7641602,0.2773438h1.5361328  c0.5522461,0,1-0.4472656,1-1s-0.4477539-1-1-1h-1.5361328c-0.3930664,0-0.7792969-0.0605469-1.1479492-0.1796875  c-0.5253906-0.1689453-1.0888672,0.1171875-1.2592773,0.6435547C42.2578125,80.7294922,42.5458984,81.2929688,43.0712891,81.4628906  z"/><path d="M56.0439453,51.1474609c-0.2387695-0.4990234-0.8354492-0.7099609-1.3334961-0.4716797  c-0.5,0.2382812-1.0375977,0.359375-1.5976562,0.359375h-0.9199219c-0.5522461,0-1,0.4472656-1,1s0.4477539,1,1,1h0.9199219  c0.8603516,0,1.6875-0.1865234,2.4589844-0.5546875C56.0703125,52.2431641,56.28125,51.6464844,56.0439453,51.1474609z"/><path d="M50.3935547,81.7402344h3.0166016c0.5522461,0,1-0.4472656,1-1s-0.4477539-1-1-1h-3.0166016c-0.5522461,0-1,0.4472656-1,1  S49.8413086,81.7402344,50.3935547,81.7402344z"/><path d="M51.8842773,65.6796875c0.0566406,0.5117188,0.4897461,0.8896484,0.9921875,0.8896484  c0.0371094,0,0.074707-0.0019531,0.1123047-0.0058594c0.5488281-0.0615234,0.9443359-0.5556641,0.8828125-1.1044922  c-0.1367188-1.2304688-0.6611328-2.359375-1.5151367-3.2636719c-0.3793945-0.4003906-1.0117188-0.4199219-1.4135742-0.0400391  c-0.4013672,0.3789062-0.4199219,1.0117188-0.0405273,1.4130859C51.4560547,64.1542969,51.7954102,64.8847656,51.8842773,65.6796875  z"/><path d="M45.1958008,53.3623047c0.121582,0,0.2456055-0.0224609,0.3657227-0.0693359  c0.4345703-0.1708984,0.894043-0.2578125,1.3652344-0.2578125h1.2441406c0.5522461,0,1-0.4472656,1-1s-0.4477539-1-1-1h-1.2441406  c-0.7231445,0-1.4287109,0.1337891-2.0976562,0.3964844c-0.5136719,0.2021484-0.7666016,0.7832031-0.5644531,1.296875  C44.4194336,53.1220703,44.796875,53.3623047,45.1958008,53.3623047z"/><path d="M56.8735352,82.1699219c0.7026367,0.3720703,1.2763672,0.9707031,1.6157227,1.6855469  c0.1708984,0.3603516,0.5297852,0.5712891,0.9038086,0.5712891c0.144043,0,0.2895508-0.03125,0.4282227-0.0966797  c0.4990234-0.2363281,0.7114258-0.8330078,0.4746094-1.3320312c-0.5224609-1.1015625-1.4052734-2.0234375-2.4858398-2.5957031  c-0.4907227-0.2607422-1.09375-0.0732422-1.3520508,0.4160156C56.199707,81.3056641,56.3857422,81.9111328,56.8735352,82.1699219z"/><path d="M41.2011719,75.1201172c0.109375-0.5419922-0.2407227-1.0693359-0.7822266-1.1787109  c-0.5424805-0.1142578-1.0688477,0.2412109-1.1777344,0.7822266c-0.074707,0.3681641-0.1123047,0.7480469-0.1123047,1.1269531  v0.2041016c0,0.7675781,0.1518555,1.5136719,0.4506836,2.2177734c0.1621094,0.3798828,0.5317383,0.6083984,0.9208984,0.6083984  c0.1303711,0,0.2631836-0.0253906,0.390625-0.0800781c0.5083008-0.2158203,0.7451172-0.8027344,0.5292969-1.3115234  c-0.1933594-0.4541016-0.2915039-0.9375-0.2915039-1.4345703v-0.2041016  C41.1289062,75.6035156,41.1533203,75.3583984,41.2011719,75.1201172z"/><path d="M59.8413086,89.9863281c0.5522461,0,1-0.4472656,1-1v-1.5c0-0.5527344-0.4477539-1-1-1s-1,0.4472656-1,1v1.5  C58.8413086,89.5390625,59.2890625,89.9863281,59.8413086,89.9863281z"/><path d="M67.2832031,10.4179688c-0.1811523-0.2939453-0.5014648-0.4736328-0.847168-0.4755859c-0.0014648,0-0.0029297,0-0.0043945,0  c-0.3442383,0-0.6640625,0.1767578-0.847168,0.46875L50.1151123,35.0736694L34.9399414,10.4179688  c-0.1811523-0.2939453-0.5014648-0.4736328-0.847168-0.4755859c-0.0014648,0-0.0029297,0-0.0043945,0  c-0.3442383,0-0.6640625,0.1767578-0.847168,0.46875L10.2421875,47.078125  c-0.293457,0.4677734-0.1518555,1.0849609,0.315918,1.3779297c0.1650391,0.1044922,0.3486328,0.1533203,0.5302734,0.1533203  c0.3330078,0,0.6582031-0.1660156,0.8481445-0.46875l10.5626831-16.8398438l2.954895,4.2382812  c0.3740234,0.5351562,1.2666016,0.5351562,1.640625,0l2.9755859-4.2685547l2.9741211,4.2675781  c0.3740234,0.5371094,1.2670898,0.5371094,1.6411133,0l2.9702148-4.2666016l2.972168,4.2666016  c0.1865234,0.2685547,0.4931641,0.4287109,0.8203125,0.4287109s0.6337891-0.1601562,0.8208008-0.4287109l3.0698242-4.4088135  l3.5908203,5.8343506l-6.3442383,10.114502c-0.293457,0.4677734-0.1518555,1.0849609,0.315918,1.3779297  c0.4682617,0.296875,1.0849609,0.1533203,1.378418-0.3154297l10.5626831-16.8398438l2.954895,4.2382812  c0.3740234,0.5351562,1.2666016,0.5351562,1.640625,0l2.9755859-4.2685547l2.9741211,4.2675781  c0.3740234,0.5371094,1.2670898,0.5371094,1.6411133,0l2.9702148-4.2666016l2.972168,4.2666016  c0.1865234,0.2685547,0.4931641,0.4287109,0.8203125,0.4287109s0.6337891-0.1601562,0.8208008-0.4287109l3.0700073-4.4090576  l10.4661255,17.0047607c0.1889648,0.3066406,0.5166016,0.4755859,0.8525391,0.4755859  c0.1787109,0,0.3598633-0.0478516,0.5229492-0.1484375c0.4707031-0.2890625,0.6171875-0.9052734,0.3276367-1.3759766  L67.2832031,10.4179688z M41.4482422,33.2167969l-2.9726562-4.2666016c-0.3730469-0.5371094-1.2670898-0.5371094-1.6411133,0  l-2.9702148,4.2666016l-2.9731445-4.2666016c-0.1870117-0.2685547-0.4931641-0.4287109-0.8203125-0.4287109  s-0.6333008,0.1601562-0.8203125,0.4277344L26.2744141,33.21875l-2.6203003-3.7591553l10.4264526-16.6226807l10.1148071,16.4343872  L41.4482422,33.2167969z M73.7915039,33.2167969l-2.9726562-4.2666016c-0.3730469-0.5371094-1.2670898-0.5371094-1.6411133,0  l-2.9702148,4.2666016l-2.9731445-4.2666016c-0.1870117-0.2685547-0.4931641-0.4287109-0.8203125-0.4287109  s-0.6333008,0.1601562-0.8203125,0.4277344L58.6176758,33.21875l-2.6203003-3.7591553l10.4264526-16.6226807l10.1149292,16.4342041  L73.7915039,33.2167969z"/></svg>
